/* XPM */
static char * uadelogo_xpm[] = {
"203 43 33 1",
" 	c None",
".	c #020305",
"+	c #363636",
"@	c #5485B7",
"#	c #BED4E3",
"$	c #8AB4D6",
"%	c #808486",
"&	c #2E4F8A",
"*	c #729ABC",
"=	c #D2D6D2",
"-	c #112552",
";	c #3865B0",
">	c #8A8D8D",
",	c #505553",
"'	c #D2DFE8",
")	c #191A1C",
"!	c #9FBED5",
"~	c #6E7578",
"{	c #82A4C0",
"]	c #07153D",
"^	c #656E73",
"/	c #DBE0DF",
"(	c #919494",
"_	c #1B3673",
":	c #B6BBB9",
"<	c #050F2A",
"[	c #619ACC",
"}	c #EAEEEE",
"|	c #9EA3A0",
"1	c #B8C8D2",
"2	c #566A81",
"3	c #0A1A4D",
"4	c #030B21",
"                                                                                                                                                                                                           ",
"      }}}}}}/                                                                                                                                                                                              ",
"    }}}}/#1'}/=                                                                                                                                                                                            ",
"   }}}}'#${[[#}1}                                                                                                                                                                                          ",
"  }}}}}}}/'#[@1/:}                                                                                                                                                             ,:     ,:                   ",
"  }}}}}/%|>1}[['11                                                                                                                                                             .|     .|                   ",
"  }}///>(2||}'@[/|/                                                                                                                                                            .|     .|                   ",
"  }/#'|1^}  }}[[':|                                                                                                        ||=     :|:   ::  ::  =|   =||   =| |=  :|:     :|: .|     .|:|:   ::   |=      ",
"  }!$/(%=   }}@@'1}}}'}  }}}}#}  }}}/:}}}/#}}/=|}}}}}/''=#1=       }}}/''==1/                                            =)...,  =+...+= ,,  ,,  |.  ^...)| |.).|=+...+=  ,...|.|     .|...)= ,,   .|      ",
"  }$['(^    }};@':}#}::} }}[$$1} }'_2*1},-##&]_%|}}#&]<<<-{#:}    }}/@-]]3&!#1                                           ))= |.^ )): =,) ,,  ,,  |. ^.| =))=|.,= ))= |., ^): ==.|     .|: =,) ,,   .|      ",
"  }[;#(>   }}};;#=/$'|>} }';@|(/ }#]_*|}-4;].]&%/}@..433<..-1(}  }}!<.<---4421:}                                        |.:   %)|.=   =.:,,  ,,  |. )^ %))% |.= :.:=^.+: )%    .|     .|   =.|,,   .|      ",
"  }@&#(>  }}}{&[!/'[#|>} }'&@{>/ }#]_>|}-..]!*~^/@.4*$~>*!-.-1|}}}1<.21%*!1_<2!1}                                       |.    |.|.     .|,,  ,,  |. .%)+% |:|.  |.|.,:=|=.|    .|     .|    .|,,   .|      ",
"  };&1'/}}}}$;;'~}'@1(>} }#&;{>/ }#]_%|}-.<!,:>/1.<!,||%%%'_.@(:}/34@*%|~~|'&3!%1                                       |.    ^):.|   :.=,,  ,,  |. )^=  =.%|.  :.:=  %.=)^   %.=     ++   |.=,,   .|      ",
"  };_1#@;;&&_&1%1=#;$(>} }#_;{>/ }#]_%|}-.&2:,:}&.@2:,|} }/!.<{|}$.-!(~%/ }}#3_1(}                                      |.:^|^.% ,.^|%), %.%%..%|)) |.,|%)) |.   ,.%|^.^ |.,|%.,      |.,|%., %.%|,.=      ",
"  };&1#;___&@#>|^=#&{>>} }1_;{>/ }#3&>|}-4*~~1}/34{(2=    }=44@:}&42^|>}   }/_3!(:                                      |.:..)%   %)..^   ^.)||..+=  |+..^= |.    ^).)%   |).)^        |+..^   ,...|       ",
"  };_!{!!!!!>^:^(}1_*%>} }1_@{>/ }#3&>|}-4@|~}}'4<*:%     }'4.21}-4*%^/    }}23{(|                                      |.                                                                      |.         ",
"  }&-$%>>>>>|%2: }1_[%>} }1_;*>/ }#3_%|}_<@|% }'4<*|:     }'4.21}-4{|~     }}[_{(>                                      |.                                                               :,:    |.         ",
"  }&3$(>:::::/   }1_[%>} }!-&*>/ }1]_@|}_]@|| }']<{(1     }'4.21}-4{|>     }}@&1(>                                      |.                                                               |.|    |.         ",
"  }_]{(>         }!3@%>} }!-&*>/ }1]_@|}_]@|| }}&<[%|    }}#4.21}-<$||    }}}@@#|%                                                                                                       |.|               ",
"  }_]*(>         }!3;$(}}}[3_$>/}}*4_~|}_]@|| }}$]-!%}  }}#@4421}-]!1(}  }}}'{1|||                                                                                                       |.|               ",
"  }_]*(>         }#-3$$'}'-]]*$=}'-4@2|}_<@||  }';]_$!'//![@44;1}-]!11#/}}}}##}%~                                                                              :,:   :,:  =^,,%=    =^,,||.|   %,,%=       ",
"  }-<[(>         }/*]3;;;-]@-]_&&34-{(%}_<@||  }/#;4<___-.;@<4;1}_3!1_;{!##'}}::^                                                                              |.|   |.| |.....)|  |..,+.|.| =)....)=      ",
"  }-4@(>          }#*-]]]_{$!_444<&{^:~}_]@||    /1@]4..._$*3<21}_-$1@&;@$'}}1|^                                                                               |.|   |.|:.):  %.) =.,   =|.| +.%  ^.)      ",
"  /[@*(>           /|*$[$*,:>*{@@*&%:,//{[@||    }#(@{2@[2%$[*&1}_-{%{1##/}'(:~                                                                                |.|   |.|^.:    %.|^.=    |.|:.^ =^.)%      ",
"  /|((|%            /|~>(:|,|1%%>|:~^/ =|(((|      /|~>>|:~%((|(}__$|%>%((||(,:                                                                                |.|   |.|,.     |.|,.     |.||.|^.)%        ",
"   }:::=              =|||:}  /||||=    /:::/        =||||= /::=}__{||}:||||1                                                                                  |.|   |.|,.=    |.|,.=    ^.:|.%^|  :.%     ",
"                                                               }}_-{||                                                                                         =.+   +.=:.,   ||.|:.,   :.)  ))=   +.:     ",
"                                                               }}_3{||                                                                                          ,.),).,  ,.),+.|.| ,..,,..:  |..,,).|      ",
"                                                               }}_3{||                                                                                           ^).)^    %).)%|.:  %)..,:    :+..+|       ",
"                                                               }}@;{||                                                                                                                                     ",
"                                                               }#~~~:|                                                                                                                                     ",
"                                                                }:~~^1                                                                                                                                     ",
"                                                                                                                                                                                                           ",
"                                                                                                                                                                                                           ",
"                                                                                                                                                                                                           ",
"                                                                                                                                                                                                           ",
"                                                                                                                                                                                                           ",
"                                                                                                                                                                                                           ",
"                                                                                                                                                                                                           ",
"                                                                                                                                                                                                           ",
"                                                                                                                                                                                                           ",
"                                                                                                                                                                                                           ",
"                                                                                                                                                                                                           "};
