/* XPM */
static char * uadelogo_xpm[] = {
"126 48 33 1",
" 	c None",
".	c #DADADA",
"+	c #CECFCF",
"@	c #C3C4C5",
"#	c #95999B",
"$	c #444546",
"%	c #4F5051",
"&	c #5A5B5C",
"*	c #656667",
"=	c #7F8081",
"-	c #B9B8B8",
";	c #8B8D8F",
">	c #A6A6A6",
",	c #F1BAB8",
"'	c #AEB0B2",
")	c #717273",
"!	c #FBFCFC",
"~	c #E9ECEE",
"{	c #020202",
"]	c #9CA1B5",
"^	c #3B3D4D",
"/	c #323334",
"(	c #28292A",
"_	c #E1E3E4",
":	c #0E0E0E",
"<	c #191A1B",
"[	c #202121",
"}	c #151617",
"|	c #121212",
"1	c #D5D7D8",
"2	c #AA9977",
"3	c #B2BABE",
"4	c #A3ACB3",
"                                                                                  .+@@@@@@+.                                  ",
"                                                                                 .#$%%&&&**=@                                 ",
"                                                                                 -$;>,,,,,-')+                                ",
"                                                                                 #*',!!!~~.@)-                                ",
"                                                                                 #*,!!!;;-.@='                                ",
"                                                                                 #*,!!{{{).@='                                ",
"                                                                                 ]*,!%{{{)+@='                                ",
"                                                                                 ]*,!%{{{*+-)'                                ",
"                                                                                 #*,@%{{{*+-*'                                ",
"                                                                                 #*'-${{{&+-*'                                ",
"                                                                                 #*'-${{{&@-*'                                ",
"                                                                                 #*'-${{{%@'*'                                ",
"  +@@@@@@@..        +@@@@@@+..        .+@';*%%*;#>@.                 ..@>######'+#*'-^{{{%-'*'        .@>=*&&=#'@+.           ",
" -%$$$$$$^&'.      '$//(((//&'.     +-=%%%****&%$$^*>+.            .@;*%&*****%$%&*'-^{{{%-'&'     .+])&*)))**%$^$#+.         ",
"+%;',,,,,];%-     +^*,,,,,=;)%@   .'&&;,,,,,@@@-'#;*%$;+          +=%),,,,----'];==''^{{{$-'*'   .+=*;,,,,@@@@']=*$%;+        ",
"@%',!!!_++-);     -/,,!!!@@@-*;  +;*,,,..+@>;;;>'+.+>)%&-.       @*),,,,'''--@@+.@>--^{{{$-'*'  .>*,,,,,,+->]>-+.+]*%%@.      ",
"@&,!!!,>'-@)=     '/,!!!**);@)* @);,!!_+>)&^/(/^%*=>+.])^>.    .'%,,!!->=&$^%&*=;-+~-^{{{$-'&' +=*,!!!_@;*$/^$&));+.#%^>.     ",
"@&,!!,:{$-@)=     '/,!!{{{/;@)&+&#,!!_,%<{{{{{{{{:(%)].-)^>.  .'%,!!!,&[{{{{{{{:(*=@-^{{{$''%'+*),!!!-*[{{{{{{{{[$*;.>%(>.    ",
"@%,!,{{{^-@)=     '/,!${{{(;@)*=;,!!!&:{{{{{{{{{{{{{<%=+-)%@  @%,!!!=({{{{{{{{{{{{%--^{{{$''%'=),!!!*<{{{{{{{{{{{{}$)+'%^@.   ",
"@%,!;{{{/>@)=     '/,!${{{(;@)^),!!!/{{{{{{::::{{{{{{{$=+'**++&=,!!*:{{{{{{{{{{{{{^>-${{{$-'&)*,!!!^{{{{{{{{{{{{{{{{/*+>^%+   ",
"@%,+={{{/>@*=     '/,@${{{(;@)&,,!,[{{{{(%)=)))*^<{{{{{$=.]%]#*,!,*{{{{}$);;=)*/:{/>-^{{{$-'*%;+!$[{{{{(*=;=)*%({{{{{/*.=/=+  ",
"@$'+){{{/;@*=     '/;@${{{(;@==,!-/{{{:&]-+...+@])%}{{{:*>+=%&,!+=:{{{^'++.+++-;)^%>-^{{{$'>)='!>({{{:*@++++++-=%}{{{{/).*/'. ",
"@^'@*{{{(;@*=     '/;@${{{(;@=;.-&{{{})-+~.';;;'+.>*}{{{[=+]*),.>[{{{%+~~.->]'@.+;=>-^{{{$'>=;.>%{{{:*+.~,>#;#!~]${{{{|$>-^%+ ",
"@^'@*{{{(;@*)     '/;@${{{(=@=>+;}{{:*-__>)^//^&)].]*:{{{*--=;,+&{{{^+_~_')%%*=;-.'>-^{{{^>>='+=|{{{&-.~,=)==#!+=^{{{{{[$.)[- ",
"@^;-&{{{(=@&)     '(;@${{{(=@=@-%{{{$>.+;&;@++@#%*;.;^{{{/=+;#+><{{['_~_=)'@@;&%);-.-^{{{^>>=+>^{{{(>+,;))=#!!;*/{{{{{:($#;(' ",
"@/;-%{{{[=@%)     '(;@${{{[=@=+;({{:)@@;%@.    .+**'@*:{{})+;'@){{{&+._=]+    .@=%)->^{{{^>>;+=<{{{*-+]==;@!>)$}{{{{:(^*@.)(@ ",
"@/;'${{{[)@%)     '(;@${{{[=@;+):{{<;.]%'.       -^=.)}{{{*@;@>${{{;+_'=.       .=%']/{{{^>]#@*{{{}=+>;;-!,=%<{{{{{($*'.]%()+ ",
"@(='${{{[)@%)     '(;@^{{{[)@;-*{{{/;+=%+        +$*+)<{{{&-#+;({{}>+_*@         #%']/{{{^>]'-${{{(;.;',,=&[{{{{{[$&>.>&/()+. ",
"@(='/{{{<)@$)     '(;-^{{{[)-;@${{{/;@*=.        .&*@)<{{{%-]@=}{{[>+@$.         ;%']/{{{^>]-;/{{{^>~.@;&({{{{{}$&;_@*$/([/=+1",
"@(='/{{{<)@$)     '(=-/{{{[)-;-${{{/]'%#         .*&@*}{{{%-]+):{{[;@;%.         *&@]/{{{^]]@=({{{^]+;&/:{{{{}/&;1@@&@,22=*/)+",
"@(='/{{{[=@%)     '(=-/{{{[)-;'${{{/]-%=.        .*&@)}{{{%-]+){{{[;+;%1        1%)+;({{{^]#@=[{{{^;=%:{{{{:/&=++=&&&2!!;]@)(3",
"@(='/{{{[=-$).    '(=-/{{{[)-;-${{{(=+**.        +%&!)}{{{%3#@):{{<=1;$+        +^=!=[{{{$4;-=({{{/##${{{:(&*3+#&$*&~~<[[(])<'",
"-(='/{{{[=@^).    '(;'/{{{<)@)@&{{{<)1=^@       +*$,!)}{{{&-;-)<{{:)@#%4+       >$2!*:{{{%'=>#^{{{(*.&<{[$*>+#*^/^=2~%{{{(3*[-",
"-[)-/{{{<&+%&+   1=^],/{{{[)-*1&<{{:&34&*+     +)^=!+)}{{{%';@=({{{&'-)&@      @&*2~${{{}&@);>${{{}&+#%$*#.])$/)^$2~%{{{:(@%[@",
"@(*@/{{{:$1)/#+++]/2+2({{{/;4&+)({{{/=+=^)@+ +@=/2~2>)}{{{$'='#${{{/=+#$*3+  +@=$2~)({{{/*@*)@&:{{{^=.&=@-)$/*]*/22~:{{{<$@^^3",
"+^%+$:{{{/;3%(*;)/2!!$:{{{^>#%]>${{{:%;+)^%)==%^2~~*'*}{{{^'==3*:{{{&#@=&$)]]#*$2~~$:{{{$]]&%@)({{{|$]1@)$/^**$/2__({{{{(;#(*@",
"+%^@*[{{{<^--*^(/2~~$[{{{|$+)^*+&[{{{}$#+;&^/^&2~~&&')|{{{$')*@=${{{}*#@])&$^$%2~~&<{{{(*@)^$#4$:{{{<$#@)$^((^$)__/:{{{|^+%<# ",
"+=(;>({{{{<^#.'~~1~$({{{{(*@$($'#$:{{{<$)@@';]@@=&[$4)<{{{$4)&#'*<{{{<&=3@';;#22#%[{{{:$]4$%^&@*({{{{<^)3@#;;>@3_/:{{{:(=#(^3 ",
" -(&.$<{{{{}/$222%^<{{{{}^3;/*/&@*/{{{{:/^**222&^|{$4*<{{{^4)$*@;%:{{{:^&);]222&^<{{{{^*@*(#&/=3%[{{{{|(^%)=222/(:{{{{[%3$[#3 ",
" @%/#]/:{{{{{}<<[<:{{{{:/)3$$3*/=@%({{{{{:[((([|{{{^>*<{{{^>=^$=@)/{{{{{|(////(}{{{{{(&3=/*34/$#]$}{{{{{:}[[[[}:{{{{{}/3)[*'  ",
" @]($@)(:{{{{{{{{{{{{{:(&+*[;@'^^;3%(:{{{{{{{{{{{{{/>&|{{{/>=(^%;3*/:{{{{{{{{{{{{{{:(%3;^$4 3#(%4]$[{{{{{{{{{{{{{{{:</3)[/>   ",
"  @)<%@)(<{{{{{{{{{{{<(&+)(&3 3>(^;3&/}{{{{{{{{{{|(%4%:{{{/])[=^%;3)$[{{{{{{{{{{{{}^&3;^(]   3;($]>%(|{{{{{{{{{{{{|[%3)[/]3   ",
"   3*}%3;/(}:{{{{{:|[/;3)(/43  3#[/=@;^(}:{{{{{|[/*3+^}:|}^#)[#]^%;3=&$[:{{{{{{:</$=3=^[;3    3=[$;3*/[}:{{{{{{:}[(=@*[/]'    ",
"    3*[$#@;$(([[[(($=3]%[$43    3;((&]3=$/(((((/&]3)>$$$$$$;)<]3>^^*>3;&$^/(((/^%=3]&/(;'      '=(^*44*$/[[<<<[($=3;$}$]4     ",
"     3=[(&;334#;#>33#*/[&>       3>)(/*;33>;;]>34=$/;]4444]]%(4 3]%($*#'4];==;]4';*^(%]'        '#$[^*]44#=))=]4>=$[[*#4      ",
"      3]%<<($&***%$/(<$;4          4#$[(^%&***&%^(((/^^^^^^^(*'  '4=/(^$&*)==)*%$/($=4           4>*[<(^%*)))*%$(<}$;]        ",
"       34])$<}|||}[$%;4'            '4=%/([<<<<[$= ;$(((((($=4     4>=&$(((([[[[^)#]4              4#=$/[}}}}}<(/*;]4         ",
"          '4]]]]]]]4'                  44]]]]]]#>4 444>>>>444        44]########]4                   >]];#######]]            "};
