/* XPM */
static char * uadelogo_xpm[] = {
"130 52 84 1",
" 	c None",
".	c #787C78",
"+	c #707070",
"@	c #807C70",
"#	c #808480",
"$	c #DADADA",
"%	c #CECFCF",
"&	c #C3C4C5",
"*	c #888888",
"=	c #887C70",
"-	c #95999B",
";	c #444546",
">	c #4F5051",
",	c #5A5B5C",
"'	c #656667",
")	c #7F8081",
"!	c #707470",
"~	c #B9B8B8",
"{	c #8B8D8F",
"]	c #A6A6A6",
"^	c #F1BAB8",
"/	c #AEB0B2",
"(	c #717273",
"_	c #808080",
":	c #FBFCFC",
"<	c #E9ECEE",
"[	c #888C88",
"}	c #888078",
"|	c #787878",
"1	c #020202",
"2	c #908478",
"3	c #909090",
"4	c #9CA1B5",
"5	c #908878",
"6	c #909490",
"7	c #908C80",
"8	c #989898",
"9	c #988C80",
"0	c #3B3D4D",
"a	c #323334",
"b	c #28292A",
"c	c #989080",
"d	c #989C98",
"e	c #989088",
"f	c #E1E3E4",
"g	c #A09488",
"h	c #A0A0A0",
"i	c #0E0E0E",
"j	c #191A1B",
"k	c #202121",
"l	c #A09888",
"m	c #151617",
"n	c #A0A4A0",
"o	c #A09C90",
"p	c #A8A8A8",
"q	c #121212",
"r	c #A89C90",
"s	c #A8ACA8",
"t	c #A8A098",
"u	c #B0B0B0",
"v	c #B0A498",
"w	c #B0A898",
"x	c #D5D7D8",
"y	c #B0B4B0",
"z	c #AA9977",
"A	c #B0A8A0",
"B	c #B2BABE",
"C	c #B8ACA0",
"D	c #B8B8B8",
"E	c #A3ACB3",
"F	c #B8B0A0",
"G	c #B8BCB8",
"H	c #C0C0C0",
"I	c #C0B8A8",
"J	c #C0C4C0",
"K	c #C8BCB0",
"L	c #C8C8C8",
"M	c #C8C0B0",
"N	c #C8CCC8",
"O	c #C8C0B8",
"P	c #D0C4B8",
"Q	c #D0D0D0",
"R	c #D0C8B8",
"S	c #D0D4D0",
".....+@#...###....#.#+.#+#.###.+..++.+###+#.++..#.##..###.#.##.+.....+@#...###....#.#+.#+#.###.+..++.+###+#.++..#.##..###.#.##.+..",
".+..++.#...###..#..###.+#.##.#+..++.+.#.+.#+++#.##.##.###...#.#..+..++.#...###..#..###.+#.##.#+..++.+.#.+.#+++#.##.##.###...#.#..+",
"++#..++##.###..##.##.##.#+#.####++.+..#+#.+++.#..##.##.####..##@++#..++##.###..##.##$%&&&&&&%$##++.+..#+#.+++.#..##.##.####..##@++",
"+**.+..*..***..**+*.*+**+..*+..***+...+.*+++..*+**.*=.*.*..***..+**.+..*..***..**+*$-;>>,,,'')&***+...+.*+++..*+**.*=.*.*..***..+*",
".**!*.**.****..*!!.!!**!**.!..!.*!*!.!*.!!!...!..*.**.***..*.*!!.**!*.**.****..*!!.~;{]^^^^^~/(%*!*!.!*.!!!...!..*.**.***..*.*!!.*",
"_****__*__*_*_*!*!!!**!******!!_!****_*!!!*__!*_**___****__*_*!!_****__*__*_*_*!*!!-'/^:::<<$&(~!****_*!!!*__!*_**___****__*_*!!_*",
"_[[[[[[_[[[_[[![[!_![_[[_[_![!_!__[[[[[!![[_!_[_[[_[_[[[[__[[![[_[[[[[[_[[[_[[![[!_-'^:::{{~$&)/__[[[[[!![[_!_[_[[_[_[[[[__[[![[_[",
"}_[[[[|_[_[_[|_[|_|[[|_[[|[[|[[__[|[[[|[[[[|__[__[[[_[_[[[[[_|_|}_[[[[|_[_[_[|_[|_|-'^::111($&)/_[|[[[|[[[[|__[__[[[_[_[[[[[_|_|}_",
"##23332||#3#|###|#|3|3##333|33#33|###|3333|3##3##33333##3#3#|#||##23332||#3#|###|#|4'^:>111(%&)/3|###|3333|3##3##33333##3#3#|#||##",
"3.2#.2..##3.3#..3.#.#3#.3.333#33.33...3#3333333##333#3##3#3#3.3.3.2#.2..##3.3#..3.#4'^:>111'%~(/.33...3#3333333##333#3##3#3#3.3.3.",
"*5.5*..***.**.3..*5**3***.*.333*3*3*.33*.333333***33*3**3*3*3*3**5.5*..***.**.3..*5-'^&>111'%~'/3*3*.33*.333333***33*3**3*3*3*3**5",
"*..*..6**.6*66..6*6***6*.***666**66*666.*666666**66666666*6*6666*..*..6**.6*66..6*6-'/~;111,%~'/*66*666.*666666**66666666*6*6666*.",
"_[[_6[6[7[6[67_[6_[[_6[___6[[_[6[[_6666[[666[666[666[[[[[[6[6[[__[[_6[6[7[6[67_[6_[-'/~;111,&~'/[[_6666[[666[666[666[[[[[[6[6[[__[",
"[[_89_8[998[899[_[[_[9__[8_8[88[_88888[88888[[8[[888[8[[8[8[9[[8[[_89_8[998[899[_[[-'/~;111>&/'/_88888[88888[[8[[888[8[[8[8[9[[8[[",
"###[%&&&&&&&$$[#8[#[[[%&&&&&&%$$#[[[8[88$%&/{'>>'{-]&$[[[[8[8[8####[98#$$&]------/%-'/~0111>~/'/#[[[8[88$&])',,)-/&%$8[[[[8[8[8###",
"383~>;;;;;;0,/$88383#/;aabbbaa,/$88#88%~)>>>'''',>;;0']%$388833838333$&{'>,'''''>;>,'/~0111>~/,/388#8$%4(,'(((''>;0;-%$3c388833838",
"c3%>{/^^^^^4{>~3#3d#%0'^^^^^){(>&d#3$/,,{^^^^^&&&~/-{'>;{%ddddd3c333%)>(^^^^~~~~/4{))//0111;~/'/3d#$%)'{^^^^&&&&/4)';>{%ddddddd3c3",
"e3&>/^:::f%%~({3d3**~a^^:::&&&~'{dd%{'^^^$$%&]{{{]/%$%](>,~$d33de3e&'(^^^^///~~&&%$&]~~0111;~/'/dd$]'^^^^^^%~]4]~%$%4'>>&$ddd33de3",
"6g&,^:::^]/~&()*h***/a^:::''({&('6&({^::f%](,0aba0>')]%$4(0]$h**6$/>^^::~]),;0>,'){~%<~0111;~/,/h%)'^:::f&{';a0;,(({%$->0]$6hh**6g",
"6h&,^::^i1;~&()6g[[6/a^::111a{&(,%,-^::f^>j11111111ib>(4$~(0]$6g$/>^:::^,k1111111ib')&~0111;//>/%'(^:::~'k11111111k;'{$]>b]$gh6g6h",
"ll&>^:^1110~&()8[[h8/a^:;111b{&('){^:::,i1111111111111j>)%~(>&l8&>^:::)b111111111111>~~0111;//>/)(^:::'j111111111111m;(%/>0&$8l8ll",
"nn&>^:{111a]&()lln88/a^:;111b{&(0(^:::a111111iiii1111111;)%/''%%,)^::'i11111111111110]~;111;~/,('^:::01111111111111111a'%]0>%8n[nn",
"33&>^%)111a]&')3nodn/a^&;111b{&(,^^:^k1111b>()((('0j11111;)$4>4-'^:^'1111m;({{)('ai1a]~0111;~/'>{%:;k1111b'){)('>b11111a'$)a)%nn33",
"pp&;/%(111a{&')dpdpd/a{&;111b{&))^:~a111i,4~%$$$%&4(>m111i']%)>,^:%)i1110/%%$%%%~{(0>]~0111;/]()/:]b111i'&%%%%%%~)>m1111a($'a/$ppp",
"pp&0/&'111b{&')6pddd/a{&;111b{&){$~,111m(~%<$/{{{/%$]'m111k)%4'(^$]k111>%<<$~]4/&$%{)]~0111;/]){$]>111i'%$<^]-{-:<4;1111q;]~0>%rpp",
"pp&0/&'111b{&'(h6hhp/a{&;111b)&)]%{m11i'~ff](0aa0,(4$4'i111'~~){^%,1110%f<f/(>>'){~$/]~01110]])/%)q111,~$<^)())-:%)011111k;$(k~hpp",
"ss&0{~,111b)&,(6hhhh/b{&;111b)&)&~>111;]$%{,{&%%&->'{${0111a)%{-%]j11k/f<f)(/&&{,>({~$~01110]])%]0111b]%^{(()-::{'a11111ib;-{b/hss",
"sh&a{~>111k)&>(shhhh/b{&;111k)&)%{b11i(&&{>&$8hsh$%''/&'i11m(%{/&(111,%$f)4%8t8s$&)>(~]01110]]{%)j111'~%4)){&:](;m1111ib0'&$(b&hsh",
"uu&a{/;111k(&>(uuuu8/b{&;111k)&{%(i11j{$4>/$n8nnun8~0)$(m111'&{&];111{%f/)$unuuuuu$)>/4a1110]4-&'111m)%]{{~:^)>j11111b;'/$4>b(%uuu",
"nu&b)/;111k(&>(vudnn/b{&0111k(&{~'111a{%)>%ndnnundu%;'%(j111,~-%{b11m]%f'&dunuvvudn->/4a1110]4/~;111b{${/^^),k11111k;,]$],ab(%$unu",
"uw&b)/a111j(&;(wuupu/b{~0111k(~{&;111a{&')$dpppppdu$,'&(j111>~4&)m11k]%&;$puupuwuup{>/4a1110]4~{a1110]<$&{,b11111m;,{f&';abka)%xuw",
"wp&b)/a111j(&;(yyywp/b)~a111k(~{~;111a4/>-pdppddypp$',&'m111>~4%(i11k{&{>$wdwwwyyyw',&4a111044&)b11104%{,ai1111ma,{x&&,&^zz)'a(%wp",
"yA&b)/a111k)&>(pyyyA/b)~a111k(~{/;111a4~>)$hppApphy$',&(m111>~4%(111k{%{>xApyyApyyx>(%{b11104-&)k1110{)>i1111ia,)%%),,,z::{4&(bByA",
"sC&b)/a111k)~;($DDDD/b)~a111k(~{~;111b)%''$sssssshD%>,:(m111>B-&(i11j)x{;%CCsCDCDD%0):)k111;E{~)b111a--;111ib,'B%-,;',<<jkkb4(j/sC",
"sD~b)/a111k)&0($ssDD/b{/a111j(&(&,111j(x)0&Dsssnns%';^:(m111,~{~(j11i(&->E%DsDDDss];z:'i111>/)]-0111b'$,j1k;']%-'0a0)z<>111bB'k~sD",
"uF~k(~a111j,%>,%uFDx)04^a111k(~'x,j11i,BE,'%Dunuu%(0):%(m111>/{&)b111,/~(,&nFDDDu&,'z<;111m,&({];111m,%->;'-$4(;a(0;z<>111ib&>k&uF",
"nn&b'&a111i;x(a-%%%4az%zb111a{E,%(b111a)%)0(&%F%&)az<z](m111;/)/-;111a)%-;'B%GG%&);z<(b111a'&'(&,i1110)$,)&~(;a'4'azz<i111j;&00Bnn",
"pu%0>%;i111a{B>b'{(az::;i1110]->4];111i>{%(0>())>0z<<'/'m1110/))B'i111,-&),;(44-';z<<;i111;44,>&(b111q;4x&(;a0'';azffb1111b{-b'&pu",
"HH%>0&'k111j0~~'0baz<<;k111q;%(0'%,k111m;-%{,0a0,z<<,,/(q111;/('&);111m'-&4(,;0;>z<<,j111b'&(0;-E;i111j;-&(;0bb0;(ffai111q0%>j-pHH",
"Hy%)b{]b1111j0-$/<<x<;b1111b'&;b;/-;i111j;(&&/{4&&),k;E(j111;E(,-/'j111j,)B&/{{-zz->k111i;4E;>0,&'b1111j0(B&-{{]&Bfai111ib)-b0BHHy",
"DHI~b,$;j1111ma;zzz>0j1111m0B{a'a,&'a1111ia0''zzz,0q1;E'j1110E(;'&{>i111i0,({4zzz,0j11110'&'b-,a)B>k1111qb0>()zzzabi1111k>B;k-BHDH",
"JJD&>a-4ai11111mjjkji1111ia(B;;B'a)&>b11111ikbbbkq1110]'j1110])0;)&(a11111qbaaaabm11111b,B)a'BEa;-4;m11111imkkkkmi11111maB(k'/JJJJ",
"JJJ&4b;&(bi1111111111111ib,%'k{&/00{B>bi1111111111111a],q111a])b0>{B'ai11111111111111ib>B{0;EJB-b>E4;k111111111111111ijaB(ka]JDJJJ",
"uKKL&(j>&(bj11111111111jb,%(b,BLB]b0{B,am1111111111qb>E>i111a4(k)0>{B(;k111111111111m0,B{0b4KGLB{b;4]>bq111111111111qk>B(ka4BKLGuK",
"GGGKLB'm>B{abmi11111iqka{B(baEBLGB-ka)&{0bmi11111qka'B%0miqm0-(k-40>{B),;ki111111ija;)B)0k{BLLLLB)k;{B'akmi111111imkb)&'ka4/LGyGGG",
"HHHHHHB'k;-&{;bbkkkbb;)B4>k;EBMHHMB{bb,4B);abbbbba,4B(];;;;;;{(j4B]00']B{,;0abbba0>)B4,ab{/LMHMHH/)b0'EE';akkjjjkb;)B{;m;4ELHLLHHH",
"NHNHNMHB)kb,{BBE-{-]BB-'ak,]NNNNHMHB](ba'{BB]{{4]BE);a{4EEEE44>bEHB4>b;'-/E4{)){4E/{'0b>4/MHNNNNHM/-;k0'4EE-)(()4E]);kk'-EHNHHNMNH",
"NHHHHHHHB4>jjb;,'''>;abj;{ENNHNHHOHHHE-;kb0>,''',>0bbba0000000b'/HH/E)ab0;,'())('>;ab;)ENONNNHNHHOHE]'kjb0>'((('>;bjm;{4NHDDHNNHNH",
"PJDDJJPJJBE4(;jmqqqmk;>{E/QJJQQJJJJQDJ/E)>abkjjjjk;)J{;bbbbbb;)EPJDDJE]),;bbbbkkkk0(-4EQQQQJJQQJJJJQDE-);akmmmmmjba'{4EQJJQDDDJPPJ",
"JJJJJJJJQJGJ/E4444444E/QJJJQJQJQGQJGJQJQGEE444444-]EQEEE]]]]EEEJJJJJJJJEE4--------4EJQPQJJJQJQJQGQJGJQJ]44{-------44QJGGGQJGJGGJJJ",
"LLLLLLLLQQGGQLQQLLQLLLLQQQGLLRGGGQGLQGGGLLGLGLRLLLLRLQLLGGQLGQLLLLLLLLLLQQGGQLQQLLQLLLLQQQGLLRGGGQGLQGGGLLGLGLRLLLLRLQLLGGQLGQLLLL",
"SLLLLLLLLSLLSSLSRLLSSLLLSLLSLGSSSGLLGLSLLGSGSSLSLLLLLLLLSLLSLLGLSLLLLLLLLSLLSSLSRLLSSLLLSLLSLGSSSGLLGLSLLGSGSSLSLLLLLLLLSLLSLLGLSL"};
